<svg xmlns:xlink="http://www.w3.org/1999/xlink" xmlns="http://www.w3.org/2000/svg" version="1.1" viewBox="0 0 512 512" height="512px" width="512px">
    <g transform="translate(44.000000, 6.000000)" id="LOGO">
        <polygon points="211 0 0 121.777407 0 225 211 103.222593 422 225 422 121.777407" fill="#5CE1E6"></polygon>
        <polygon points="0 225.036675 -3.47725321e-15 468.632812 422 468.632812 422 225.036675 211 103" fill="#EFF0F2"></polygon>
        <path fill-rule="nonzero" fill="#000000" id="Border" d="M211.054951,46 L263.606949,80.2505312 L366,146.892469 L366,422 L56,422 L56,146.953425 L158.386946,80.3114868 L211.054951,46 Z M356.96963,151.823717 L258.673521,87.8211245 L211.054951,56.7585324 L163.265422,87.8211245 L64.9693134,151.823717 L64.9693134,412.990872 L356.908572,412.990872 L356.908572,151.823717 L356.96963,151.823717 Z"></path>
        <g fill="#000000" transform="translate(93.000000, 197.000000)">
            <path id="Shape" d="M85,0 L96.5113122,0 L96.5113122,72 L85,72 L85,0 Z M133,72 L120.812971,72 L107.467572,45.9208731 C107.27451,45.9208731 107.063348,45.939291 106.840121,45.9699864 C106.610861,46.0068221 106.273002,46.0190996 105.826546,46.0190996 C105.392157,46.0190996 104.740573,46.0190996 103.871795,46.0190996 C103.003017,46.0190996 101.868778,46.0190996 100.46908,46.0190996 L100.46908,37.4242838 L106.984917,37.4242838 C108.396683,37.4242838 109.808446,37.1787176 111.208145,36.6875853 C112.619909,36.1964529 113.898945,35.4045024 115.045249,34.3055935 C116.20362,33.1944069 117.126696,31.6473401 117.820513,29.6643929 C118.526395,27.6691682 118.882353,25.2073662 118.882353,22.2728513 C118.882353,21.0941337 118.719457,19.7435198 118.399698,18.2210095 C118.092006,16.6862218 117.440422,15.2189636 116.444947,13.8253752 C115.44344,12.4195093 114.055807,11.2469304 112.269985,10.313779 C110.484163,9.36835004 108.119155,8.88949523 105.174962,8.88949523 L100.46908,8.88949523 L100.46908,0 L105.368024,0 C108.372548,0 111.352941,0.491132333 114.297134,1.473397 C117.241327,2.44338414 119.877828,3.90450205 122.21267,5.86903138 C124.541477,7.82128162 126.42383,10.1787168 127.859729,12.941337 C129.307692,15.7100959 130.031674,18.8226459 130.031674,22.2728513 C130.031674,27.478854 128.84917,31.9113241 126.484163,35.5579809 C124.119155,39.210778 120.915535,41.9120058 116.879336,43.6616644 L133,72 Z"></path>
            <path id="Shape" d="M69,72 L57.0567911,72 L38.6453535,18 L20.0401112,72 L8,72 L32.8554408,0 L44.3383638,0 L69,72 Z M44.9924543,49.1065574 L47.8026211,57.0245902 L29.3911835,57.0245902 L32.0802224,49.1065574 L44.9924543,49.1065574 Z"></path>
            <polygon points="199 0 199 8.00545703 177.830645 8.00545703 177.830645 72 166.169355 72 166.169355 8.00545703 145 8.00545703 145 0"></polygon>
            <polygon points="225 72 213 72 213 0 225 0"></polygon>
            <polygon points="11.9002181 90 11.9002181 153.110505 45 153.110505 45 162 0 162 0 90"></polygon>
            <path id="Shape" d="M56,125.451268 C56,119.700935 56.6938187,114.620662 58.0875972,110.198264 C59.4936549,105.763685 61.4523127,102.011348 63.9574294,98.941255 C66.4748252,95.8711615 69.4465829,93.5198606 72.8726975,91.8751669 C76.2926726,90.2182911 80.019648,89.261933 84.0474826,89 L84.0474826,98.6975968 C81.8370856,98.9595298 79.7494883,99.6417728 77.784691,100.744326 C75.8321743,101.834697 74.137535,103.448932 72.7007777,105.593124 C71.2762996,107.725133 70.1342619,110.435831 69.2869423,113.731308 C68.4519034,117.014603 67.9975432,120.919226 67.9361441,125.451268 C67.9975432,130.032043 68.4519034,133.95494 69.2869423,137.21996 C70.1342619,140.48498 71.2885788,143.226136 72.7498977,145.431242 C74.2234957,147.624166 75.9304142,149.293224 77.8829308,150.426235 C79.8477282,151.547063 81.8984847,152.20494 84.0474826,152.399866 L84.0474826,162 C80.0687679,161.738067 76.3479321,160.793891 72.8972575,159.149199 C69.4588621,157.492323 66.4748252,155.128838 63.9574294,152.058745 C61.4523127,148.988652 59.4936549,145.230224 58.0875972,140.77737 C56.6938187,136.312334 56,131.201602 56,125.451268 Z M87.9525174,89 C91.9312321,89.1949266 95.6275079,90.1391025 99.0536226,91.8264352 C102.473598,93.5015858 105.439214,95.8711615 107.944331,98.941255 C110.449447,102.011348 112.414245,105.763685 113.838723,110.198264 C115.275482,114.620662 116,119.700935 116,125.451268 C116,131.201602 115.275482,136.312334 113.838723,140.77737 C112.414245,145.230224 110.449447,148.988652 107.944331,152.058745 C105.439214,155.128838 102.492018,157.492323 99.1027425,159.149199 C95.713467,160.793891 91.9926328,161.738067 87.9525174,162 L87.9525174,152.399866 C90.1751952,152.144026 92.2627909,151.449599 94.215309,150.328772 C96.1616861,149.19576 97.8501842,147.544977 99.2746623,145.38251 C100.71142,143.207861 101.859598,140.48498 102.713058,137.21996 C103.560376,133.95494 104.020876,130.032043 104.088416,125.451268 C104.020876,120.870494 103.560376,116.947597 102.713058,113.682577 C101.859598,110.417557 100.69914,107.70686 99.2255424,105.544393 C97.7642235,103.369743 96.0634462,101.718959 94.1170692,100.598131 C92.164551,99.4651209 90.1137945,98.7950601 87.9525174,98.6001335 L87.9525174,89 Z"></path>
            <path id="Shape" d="M132,90 L143.900218,90 L143.900218,162 L132,162 L132,90 Z M173.982007,129.560709 L147.899673,129.560709 L147.899673,121.555252 L173.982007,121.555252 L173.982007,129.560709 Z M177,90 L177,98.8894952 L147.899673,98.8894952 L147.899673,90 L177,90 Z"></path>
            <polygon points="240 90 240 98.005457 218.830645 98.005457 218.830645 162 207.169355 162 207.169355 98.005457 186 98.005457 186 90"></polygon>
        </g>
    </g>
</svg>